# xmcd CD database file
#
# Track frame offsets:
#	150
#	19063
#	34563
#	53125
#	69740
#	83505
#	108773
#	125623
#	149860
#	175525
#
# Disc length: 2660 seconds
#
# Revision: 0
# Processed by: cddbd v1.5.1PL2 Copyright (c) Steve Scherf et al.
# Submitted via: CDex 1.51
#
DISCID=800a620a
DTITLE=Earl Klugh - Best Sellers JAZZ
DYEAR=1900
DGENRE=Jazz
TTITLE0=Catherine
TTITLE1=Dance With Me
TTITLE2=Summer Song
TTITLE3=This Time
TTITLE4=Jolanta
TTITLE5=Long Ago And Far Away
TTITLE6=The April Fools
TTITLE7=Felicia
TTITLE8=Living Inside Your Love
TTITLE9=Captain Caribe
EXTD=
EXTT0=
EXTT1=
EXTT2=
EXTT3=
EXTT4=
EXTT5=
EXTT6=
EXTT7=
EXTT8=
EXTT9=
PLAYORDER=
